<svg xmlns="http://www.w3.org/2000/svg" xmlns:xlink="http://www.w3.org/1999/xlink" preserveAspectRatio="xMidYMid" width="70" height="70" viewBox="0 0 70 70">
  <defs>
    <style>
      .cls-1 {
        fill: #000;
        opacity: 0.2;
        fill-rule: evenodd;
      }
    </style>
  </defs>
  <path d="M-0.000,70.000 L-0.000,-0.000 L70.000,-0.000 L70.000,70.000 L-0.000,70.000 ZM49.000,22.000 L43.000,22.000 C43.000,17.581 39.418,14.000 35.000,14.000 C30.582,14.000 27.000,17.581 27.000,22.000 L21.000,22.000 L15.000,51.000 L55.000,51.000 L49.000,22.000 ZM29.236,33.008 L33.516,37.412 L41.764,29.008 L44.994,32.283 L36.722,40.711 L36.730,40.719 L33.500,43.994 L33.477,43.971 L30.270,40.719 L30.293,40.695 L26.006,36.283 L29.236,33.008 ZM35.000,17.000 C37.761,17.000 40.000,19.238 40.000,22.000 C38.312,22.000 31.375,22.000 30.000,22.000 C30.000,19.238 32.239,17.000 35.000,17.000 Z" class="cls-1"/>
</svg>
