<svg id="Layer_1" data-name="Layer 1" xmlns="http://www.w3.org/2000/svg" viewBox="0 0 65.19 42.52"><defs><style>.cls-1{fill:#187fae;fill-rule:evenodd;}</style></defs><title>ico-paypal</title><path class="cls-1" d="M21.27,21.85a0.59,0.59,0,0,0,.59.92A1.13,1.13,0,0,0,23,21.9a5.06,5.06,0,0,1,.12-0.59H22.59A1.56,1.56,0,0,0,21.27,21.85Z"/><path class="cls-1" d="M38,17.38H36.82l-0.5,2.31h1.12a1.55,1.55,0,0,0,1.41-1.16A0.87,0.87,0,0,0,38,17.38Z"/><path class="cls-1" d="M42.92,21.85a0.6,0.6,0,0,0,.62.92,1.11,1.11,0,0,0,1.16-.87c0-.21.07-0.39,0.12-0.59H44.28A1.61,1.61,0,0,0,42.92,21.85Z"/><path class="cls-1" d="M0,0V42.52H65.19V0H0ZM16.11,21.31H14.37l-0.6,2.8H11.33l1.84-8.45h4.15a2.21,2.21,0,0,1,2.21,2.87A3.4,3.4,0,0,1,16.11,21.31Zm9.61-1.62-1,4.42H22.54l0.15-.67C21.51,24.65,18.51,24.73,19,22c0.34-1.62,2-2.13,4.47-2.13,0.15-.72-0.34-0.9-1.17-0.87a6.44,6.44,0,0,0-2.13.46l0.2-1.62a10.58,10.58,0,0,1,2.49-.41C24.4,17.36,26.11,17.82,25.72,19.69ZM26,26.92l1.63-2.77L26.69,17.5h2.22l0.36,3.93,2.18-3.93h2.3l-5.29,9.41H26Zm11.72-5.61H36l-0.62,2.8H33l1.84-8.45h4.14a2.21,2.21,0,0,1,2.21,2.87A3.4,3.4,0,0,1,37.69,21.31Zm9.73-1.62-1,4.42H44.23l0.15-.67c-1.21,1.21-4.26,1.28-3.76-1.49,0.35-1.62,2-2.13,4.53-2.13,0.17-.72-0.32-0.9-1.16-0.87a6.93,6.93,0,0,0-2.18.46L42,17.79a11.32,11.32,0,0,1,2.55-.41C46.11,17.36,47.81,17.82,47.42,19.69Zm2.33,4.42H47.48l1.84-8.47h2.29Zm2.88-8.37H52.25v1H52.1v-1H51.73V15.6h0.9v0.13Zm1.23,1H53.71V15.78l-0.33.95H53.24l-0.33-1v1H52.77V15.6H53l0.27,0.8,0.05,0.17,0.06-.18,0.27-.79h0.2v1.13Z"/><path class="cls-1" d="M16.43,17.38H15.24l-0.52,2.31h1.14a1.52,1.52,0,0,0,1.39-1.16A0.86,0.86,0,0,0,16.43,17.38Z"/></svg>