<svg id="Layer_1" data-name="Layer 1" xmlns="http://www.w3.org/2000/svg" viewBox="0 0 33.85 18.58"><title>ico-pass-false</title><line x1="25.51" y1="0.71" x2="8.34" y2="17.88" style="fill:none;stroke:#bdbdbd;stroke-miterlimit:10;stroke-width:2px"/><path d="M12.57,16.47a15.72,15.72,0,0,0,4.36.65c8.61,0,15.58-7.83,15.58-7.83a29,29,0,0,0-7.22-5.54" style="fill:none;stroke:#bdbdbd;stroke-miterlimit:10;stroke-width:2px"/><path d="M21.28,2.11a15.71,15.71,0,0,0-4.35-.65C8.32,1.46,1.34,9.29,1.34,9.29a29.08,29.08,0,0,0,7.22,5.54" style="fill:none;stroke:#bdbdbd;stroke-miterlimit:10;stroke-width:2px"/><path d="M15.44,13.61a4.53,4.53,0,0,0,1.49.27A4.54,4.54,0,0,0,21.24,7.8" style="fill:none;stroke:#bdbdbd;stroke-miterlimit:10;stroke-width:2px"/><path d="M18.41,5a4.54,4.54,0,0,0-5.8,5.8" style="fill:none;stroke:#bdbdbd;stroke-miterlimit:10;stroke-width:2px"/></svg>