<svg id="Layer_1" data-name="Layer 1" xmlns="http://www.w3.org/2000/svg" viewBox="0 0 65.19 42.52"><defs><style>.cls-1{fill:#0058a0;fill-rule:evenodd;}</style></defs><title>ico-visa</title><path class="cls-1" d="M0,0V42.52H65.19V0H0ZM18,27.58L15,16.64a14.33,14.33,0,0,0-3.62-1.41l0-.26h5.55A1.44,1.44,0,0,1,18.49,16l1.21,5.8,0.36,1.75L23.42,15h3.65L21.65,27.57H18Zm11.75,0H26.31L28.46,15h3.44Zm6,0.19a10.92,10.92,0,0,1-3.84-.67l0.48-2.83,0.44,0.2a7.21,7.21,0,0,0,3.24.66c1,0,2.05-.39,2.06-1.23,0-.55-0.44-0.95-1.78-1.57s-3-1.62-3-3.43c0-2.46,2.42-4.17,5.82-4.17a8.89,8.89,0,0,1,3.09.53L41.77,18l-0.31-.15a6.35,6.35,0,0,0-2.58-.48c-1.35,0-2,.56-2,1.09s0.73,1,1.93,1.57c2,0.9,2.9,2,2.89,3.43C41.71,26.08,39.36,27.78,35.74,27.78Zm14.91-.18s-0.32-1.45-.42-1.89H45.83c-0.13.34-.73,1.9-0.73,1.9H41.49L46.6,16a1.71,1.71,0,0,1,1.8-1h2.66l2.79,12.62H50.66Z"/><path class="cls-1" d="M48.65,18.38c-0.17.47-.48,1.24-0.46,1.21l-1.37,3.53h2.86l-0.8-3.65Z"/></svg>