<svg id="Layer_1" data-name="Layer 1" xmlns="http://www.w3.org/2000/svg" viewBox="0 0 65.19 42.52"><defs><style>.cls-1{fill:#ed1c2e;fill-rule:evenodd;}</style></defs><title>ico-mastercard</title><path class="cls-1" d="M21.17,22.18c-0.38.26-.49,0.72-0.08,0.88a0.81,0.81,0,0,0,1-.51l0.1-.47A1.4,1.4,0,0,0,21.17,22.18Z"/><path class="cls-1" d="M47.91,21.73a0.79,0.79,0,0,0,.61,1.11,1.11,1.11,0,0,0,.93-0.9,1.41,1.41,0,0,0-.06-1.06C49,20.38,48.16,20.78,47.91,21.73Z"/><path class="cls-1" d="M41.37,22.18c-0.38.26-.47,0.72-0.08,0.88a0.81,0.81,0,0,0,1-.51l0.1-.47A1.4,1.4,0,0,0,41.37,22.18Z"/><path class="cls-1" d="M40.65,9.4a11.73,11.73,0,0,0-7.46,2.65,12.78,12.78,0,0,1,3.39,5.53h-1a11.72,11.72,0,0,0-3.11-4.91,11.91,11.91,0,0,0-3.09,4.89h-1a12.71,12.71,0,0,1,3.35-5.5,11.86,11.86,0,1,0,0,18.38,12.71,12.71,0,0,1-3.35-5.5h1a11.8,11.8,0,0,0,3.09,4.89,11.77,11.77,0,0,0,3.11-4.89h1a12.82,12.82,0,0,1-3.39,5.52,11.73,11.73,0,0,0,7.46,2.65A11.86,11.86,0,1,0,40.65,9.4ZM40.9,19.71l-0.18,0Zm-20.21,0-0.3.06ZM17.8,24l0.7-3.75L16.83,24H15.71l-0.31-3.83L14.66,24H13.46l1-5.3h1.92L16.62,22l1.46-3.21h2L19,24H17.8ZM22,24l-0.16-.25a1.58,1.58,0,0,1-1,.26,1.17,1.17,0,0,1-1.24-1.34c0.33-1.83,2.47-1.49,2.78-1.52,0.13-.67-0.33-0.61-0.74-0.62a12.46,12.46,0,0,0-1.49.15l0.2-.95a7.45,7.45,0,0,1,1.55-.16,1.51,1.51,0,0,1,1.69,2L23.14,24H22Zm4.84-1.24C26.67,24.11,25.25,24,25,24a4.58,4.58,0,0,1-1.41-.16l0.16-.9a4.91,4.91,0,0,0,1.59.11,0.35,0.35,0,0,0,.15-0.67c-0.25-.12-0.51-0.29-1-0.49a1,1,0,0,1-.41-1.28c0.21-1.06,1.65-1,1.82-1a3,3,0,0,1,1.18.18l-0.28.88a3.65,3.65,0,0,0-1.18-.07c-0.44.13-.26,0.54,0,0.64a9.13,9.13,0,0,1,.87.47A1,1,0,0,1,26.87,22.81Zm2.06,1a1.59,1.59,0,0,1-.88.23,1,1,0,0,1-.95-1.37l0.82-4.16h1.19L28.86,19.7h0.65l-0.21.95H28.68l-0.33,1.77c-0.07.34,0,.65,0.65,0.54Zm2.67-.79a8,8,0,0,0,1.34-.11l-0.18.9a3.89,3.89,0,0,1-1.54.21,1.91,1.91,0,0,1-2-2.23,2.31,2.31,0,0,1,2.23-2.19c2.09,0,1.77,1.75,1.64,2.45H30.5C30.35,23.08,31.12,23.05,31.6,23.05Zm3.09-1-0.36,2H33.14l0.8-4.35h1l0.1,0.43a1.47,1.47,0,0,1,1.15-.43L35.9,20.84C35.61,20.84,35,20.76,34.69,22.05Zm4.55,0.64,0.34,1.08a3.25,3.25,0,0,1-1.46.28c-1.24,0-2.59-1.11-2-3.34a2.86,2.86,0,0,1,2.68-2.23,2,2,0,0,1,1.64.7L39.71,20a1.58,1.58,0,0,0-.93-0.21,1.63,1.63,0,0,0-1.44,1.46C37.13,22.48,38,23.12,39.24,22.69Zm3,1.36-0.15-.25a1.66,1.66,0,0,1-1,.26,1.18,1.18,0,0,1-1.26-1.34c0.34-1.83,2.49-1.49,2.78-1.52,0.15-.67-0.31-0.61-0.74-0.62a11.81,11.81,0,0,0-1.47.15l0.18-.95a7.66,7.66,0,0,1,1.55-.16c2,0,1.82,1.44,1.69,2L43.33,24H42.22Zm3.16-2L45,24H43.79l0.83-4.39h1l0.1,0.44a1.42,1.42,0,0,1,1.15-.44l-0.33,1.15C46.29,20.79,45.74,20.71,45.38,22Zm3.76,2L49,23.69a2.15,2.15,0,0,1-1,.36c-0.87,0-1.65-1.21-1.26-2.55,0.57-2,1.6-1.87,2.26-1.87a1.26,1.26,0,0,1,.93.52l0.33-1.69h1.26l-1,5.58H49.14Z"/><path class="cls-1" d="M53.48,26.42a0.44,0.44,0,0,0-.44.46,0.43,0.43,0,0,0,.44.44,0.42,0.42,0,0,0,.43-0.44A0.43,0.43,0,0,0,53.48,26.42Zm0.15,0.77-0.16-.28h-0.1v0.28h-0.1V26.57H53.5c0.15,0,.23,0,0.23.18a0.16,0.16,0,0,1-.16.16l0.18,0.28H53.63Z"/><path class="cls-1" d="M31.51,20.5a0.93,0.93,0,0,0-.95.79h1.49A0.56,0.56,0,0,0,31.51,20.5Z"/><path class="cls-1" d="M0,0V42.52H65.19V0H0ZM40.65,34.07a12.82,12.82,0,0,1-8.17-2.95,12.81,12.81,0,1,1,0-19.72A12.81,12.81,0,1,1,40.65,34.07Zm12.83-6.64A0.54,0.54,0,1,1,54,26.88,0.54,0.54,0,0,1,53.48,27.42Z"/><path class="cls-1" d="M53.63,26.73c0-.07-0.07-0.08-0.13-0.08H53.36v0.18h0.11C53.54,26.83,53.63,26.83,53.63,26.73Z"/></svg>