<svg id="Layer_1" data-name="Layer 1" xmlns="http://www.w3.org/2000/svg" viewBox="0 0 31.93 22.2"><defs><style>.cls-1{fill:#fff;fill-rule:evenodd;}</style></defs><title>Vector Smart Object</title><path class="cls-1" d="M20.88,19a3.41,3.41,0,0,0,6.8,0h-6.8Z"/><path class="cls-1" d="M4.19,19A3.41,3.41,0,0,0,11,19H4.19Z"/><path class="cls-1" d="M26.39,10.85a4.1,4.1,0,0,0-1.22-1.75L22,6.36a4,4,0,0,0-1.87-1,1.21,1.21,0,0,0-1.45,1.18V9.65a1.21,1.21,0,0,0,1.2,1.2h6.47Z"/><path class="cls-1" d="M0,0V19.82H31.93v-7.5a9.3,9.3,0,0,0-3.26-7.19L25.54,2.38A9.28,9.28,0,0,0,19.23,0H0ZM2.41,2.41H19.23A6.87,6.87,0,0,1,24,4.19l3.13,2.75a6.9,6.9,0,0,1,2.44,5.38v5.1H2.41v-15Z"/></svg>