<svg id="Layer_1" data-name="Layer 1" xmlns="http://www.w3.org/2000/svg" viewBox="0 0 35.34 35.19"><defs><style>.cls-1{fill:#fff;}.cls-1,.cls-2{fill-rule:evenodd;}.cls-2{fill:none;stroke:#fff;stroke-miterlimit:10;stroke-width:2.5px;}</style></defs><title>Vector Smart Object1</title><path class="cls-1" d="M17.68,14a3.62,3.62,0,1,1-3.63,3.62A3.61,3.61,0,0,1,17.68,14h0Z"/><path class="cls-2" d="M32.76,11.62h0a3,3,0,0,0-2-.24L30,11.5a13.71,13.71,0,0,0-3.25-4.22l0.36-.6a2.49,2.49,0,0,0,.24-2.05,2.47,2.47,0,0,0-1.21-1.69,3.05,3.05,0,0,0-2.05-.24A2.47,2.47,0,0,0,22.51,4l-0.36.48a12,12,0,0,0-5.43-.6l-0.24-.72a2.28,2.28,0,0,0-1.21-1.57,2.45,2.45,0,0,0-2.05-.24,2,2,0,0,0-1.57,1.21,2.44,2.44,0,0,0-.24,2.05l0.12,0.72A10.64,10.64,0,0,0,7.44,8.61L6.71,8.25a2.47,2.47,0,0,0-2-.36A3,3,0,0,0,3,9.21a2.88,2.88,0,0,0-.12,2,2.2,2.2,0,0,0,1.21,1.57l0.72,0.48a12.34,12.34,0,0,0-.72,5.19l-0.85.24a2,2,0,0,0-1.57,1.21A2.08,2.08,0,0,0,1.41,22a2.26,2.26,0,0,0,1.2,1.57,2.08,2.08,0,0,0,2,.24l0.85-.12a13.19,13.19,0,0,0,3.25,4.1l-0.48.72A2.49,2.49,0,0,0,8,30.56a2,2,0,0,0,1.21,1.57,2.45,2.45,0,0,0,2.05.25,2.58,2.58,0,0,0,1.57-1.21l0.48-.72a15,15,0,0,0,5.18.61l0.12,1A2.45,2.45,0,0,0,20,33.57a2.43,2.43,0,0,0,2.05.24,2.55,2.55,0,0,0,1.56-1.21,2.44,2.44,0,0,0,.24-2l-0.24-.85a11.1,11.1,0,0,0,4.23-3.13l0.72,0.36a3.12,3.12,0,0,0,2.05.36A3,3,0,0,0,32.28,26,3.56,3.56,0,0,0,32.52,24a2.4,2.4,0,0,0-1.33-1.69L30.59,22a13.36,13.36,0,0,0,.72-5.3L32,16.57a2.7,2.7,0,0,0,1.69-1.33,2.41,2.41,0,0,0,.24-2,2.28,2.28,0,0,0-1.21-1.57h0Z"/></svg>