<?xml version="1.0" encoding="utf-8"?>
<!-- Generator: Adobe Illustrator 19.0.1, SVG Export Plug-In . SVG Version: 6.00 Build 0)  -->
<svg version="1.1" id="Isolation_Mode" xmlns="http://www.w3.org/2000/svg" xmlns:xlink="http://www.w3.org/1999/xlink" x="0px"
	 y="0px" viewBox="0 0 33.3 32.2" style="enable-background:new 0 0 33.3 32.2;" xml:space="preserve">
<style type="text/css">
	.st0{fill:#FFFFFF;}
</style>
<path class="st0" d="M9.1,12c-1.1,1.2,0,2.7,1.3,4.2c1.8,2.1,3.9,4,5.7,5.3c2.7,2.1,4.1,3,5.2,1.9l7.9,7.4
	c-1.2,1.4-8.6,4.1-20.4-7.3C-2.5,12.7-0.1,5.9,1,4.4L9.1,12z M33.1,26.9c0.5-0.5,0-1.3,0-1.7v0c0,0-6.2-5.8-6.2-5.8
	c-0.5-0.5-1.3-0.4-1.7,0.1L23,21.7l7.9,7.5C30.9,29.1,33.1,26.9,33.1,26.9L33.1,26.9z M13.2,8c0.4-0.5,0-1.3-0.8-1.7v0
	c0,0-6.1-6-6.1-6C5.8-0.1,5.2-0.1,4.7,0.4L2.7,2.6l8.3,7.6L13.2,8L13.2,8z"/>
</svg>
