<svg id="Layer_1" data-name="Layer 1" xmlns="http://www.w3.org/2000/svg" viewBox="0 0 32.11 31.31"><defs><style>.cls-1{fill:#fff;stroke:#fff;stroke-miterlimit:10;}</style></defs><title>ico_present</title><path class="cls-1" d="M29.75,8.7V13H2.36V8.7H29.75m1.86-1.86H0.5v8H31.61v-8h0Z"/><path class="cls-1" d="M22,0.5a3.87,3.87,0,0,0-3.28,1.84L16.05,6.72,13.38,2.34A3.87,3.87,0,0,0,10.1.5a4.06,4.06,0,1,0,0,8.13H22A4.06,4.06,0,1,0,22,.5ZM10.1,6.76a2.2,2.2,0,0,1,0-4.4,2,2,0,0,1,1.69.95l2.11,3.45H10.1ZM22,6.76h-3.8l2.11-3.45A2,2,0,0,1,22,2.37,2.2,2.2,0,0,1,22,6.76Z"/><polygon class="cls-1" points="27.2 13.79 27.2 28.95 12.68 28.95 11.25 28.95 4.98 28.95 4.98 13.79 3.12 13.79 3.12 30.81 11.25 30.81 12.68 30.81 29.06 30.81 29.06 13.79 27.2 13.79"/><rect class="cls-1" x="15.16" y="13.79" width="1.86" height="16.13"/></svg>