<svg id="Layer_1" data-name="Layer 1" xmlns="http://www.w3.org/2000/svg" viewBox="0 0 41.96 27.07"><defs><style>.cls-1{fill:#fff;fill-rule:evenodd;}</style></defs><title>ico_cards</title><path class="cls-1" d="M14.7,5.87H38.25A3.73,3.73,0,0,1,42,9.58V23.36a3.73,3.73,0,0,1-3.72,3.72H14.7A3.73,3.73,0,0,1,11,23.36V9.58A3.73,3.73,0,0,1,14.7,5.87h0ZM4.28,18.9a1.85,1.85,0,0,1-.64-0.41h0a1.74,1.74,0,0,1-.52-1.25V11.92H8.75V6.55H3.12V4.9a1.77,1.77,0,0,1,.52-1.25h0a1.77,1.77,0,0,1,1.25-.51H26a1.75,1.75,0,0,1,1.25.52h0a1.92,1.92,0,0,1,.4.61h3.2a4.93,4.93,0,0,0-1.4-2.81h0A4.89,4.89,0,0,0,26,0H4.89A4.89,4.89,0,0,0,1.44,1.44h0A4.86,4.86,0,0,0,0,4.9V17.24a4.86,4.86,0,0,0,1.44,3.46h0a4.94,4.94,0,0,0,3.13,1.43v0H8.95V18.9H4.28ZM30.47,8.81v4.75h8.81V8.81H30.47ZM14.33,20.31v2.62h5V20.31h-5Zm6.86,0v2.62h5V20.31h-5Zm6.59,0v2.62h5V20.31h-5Zm6.43,0v2.62h5V20.31h-5Z"/></svg>