<svg xmlns="http://www.w3.org/2000/svg" xmlns:xlink="http://www.w3.org/1999/xlink" preserveAspectRatio="xMidYMid" width="70" height="70" viewBox="0 0 70 70">
  <defs>
    <style>
      .cls-1 {
        fill: #06ae84;
        fill-rule: evenodd;
      }
    </style>
  </defs>
  <path d="M-0.000,70.000 L-0.000,-0.000 L70.000,-0.000 L70.000,70.000 L-0.000,70.000 ZM35.500,18.000 C31.358,18.000 28.000,21.358 28.000,25.500 C28.000,29.642 31.358,33.000 35.500,33.000 C39.642,33.000 43.000,29.642 43.000,25.500 C43.000,21.358 39.642,18.000 35.500,18.000 ZM47.000,41.000 C46.004,37.894 44.178,36.000 40.000,36.000 L30.000,36.000 C26.072,36.000 23.957,37.936 23.000,41.000 C21.983,44.255 20.000,53.000 20.000,53.000 L50.000,53.000 C50.000,53.000 48.001,44.122 47.000,41.000 Z" class="cls-1"/>
</svg>
