<?xml version="1.0" encoding="utf-8"?>
<!-- Generator: Adobe Illustrator 19.0.1, SVG Export Plug-In . SVG Version: 6.00 Build 0)  -->
<svg version="1.1" id="Layer_1" xmlns="http://www.w3.org/2000/svg" xmlns:xlink="http://www.w3.org/1999/xlink" x="0px" y="0px"
	 viewBox="0 0 42.5 42.5" enable-background="new 0 0 42.5 42.5" xml:space="preserve">
<g>
	<path fill-rule="evenodd" clip-rule="evenodd"  d="M29.8,14.8c-0.3-0.8-0.8-1.5-1.5-2c-0.5-0.3-1-0.6-1.6-0.8
		c-1.5-0.5-3.1-0.7-4.7-0.8c-1.2,0-2.4,0-3.6,0.1c-1.1,0.2-2.1,0.4-3.1,0.9c-1.2,0.5-2,1.4-2.5,2.5c-0.5,1.1-0.7,2.2-0.8,3.4
		c0,0.4,0,0.8,0,1.2c-0.1,1.2,0,2.5,0.2,3.7c0.2,0.9,0.5,1.7,1,2.5c0.7,1.1,1.7,1.7,3,2.1c0.1,0,0.2,0.1,0.2,0.2c0,0.6,0,1.2,0,1.8
		h0c0,0.4,0,0.7,0,1.1c0,0.3,0,0.7,0,1c0,0.2,0.1,0.2,0.3,0.2c0.1-0.1,0.2-0.2,0.3-0.3c0.9-1,1.8-2.1,2.7-3.1
		c0.2-0.2,0.3-0.3,0.6-0.3c0.8,0,1.6,0,2.3,0c0.6,0,1.1-0.1,1.7-0.2c0.7-0.1,1.5-0.3,2.2-0.5c1.6-0.4,2.8-1.3,3.5-2.8
		c0.3-0.8,0.5-1.5,0.6-2.4c0.1-0.8,0.1-1.6,0.2-2.4c0-0.9,0-1.9-0.1-2.8C30.3,16.5,30.1,15.6,29.8,14.8z M26.3,24.2
		c-0.3,0.6-0.7,1.1-1.3,1.5c-0.2,0.1-0.4,0.1-0.6,0.2c-0.4,0-0.7-0.2-1-0.3c-1.6-0.7-3-1.5-4.3-2.7c-1.1-1-1.9-2.1-2.6-3.4
		c-0.4-0.8-0.8-1.5-1.1-2.3c-0.1-0.3-0.1-0.7,0.1-1c0.3-0.6,0.9-1.1,1.5-1.4c0.3-0.2,0.7-0.1,0.9,0.2c0.5,0.6,1,1.3,1.4,2
		c0.2,0.5,0.1,0.9-0.3,1.2c-0.1,0.1-0.3,0.2-0.4,0.3c-0.2,0.2-0.3,0.4-0.2,0.7c0.6,1.6,1.6,2.8,3.2,3.4c0.1,0,0.3,0.1,0.4,0.1
		c0.2,0,0.4-0.1,0.5-0.3c0.1-0.1,0.2-0.3,0.3-0.4c0.3-0.4,0.8-0.5,1.2-0.2c0.6,0.3,1.2,0.8,1.7,1.2c0.1,0.1,0.2,0.1,0.2,0.2
		C26.4,23.6,26.5,23.9,26.3,24.2z M22.1,16.3c-0.2,0-0.4-0.1-0.6-0.1c-0.2,0-0.3-0.2-0.3-0.3c0-0.2,0.1-0.3,0.3-0.3
		c1.1,0.1,2.1,0.4,2.8,1.3c0.6,0.7,0.9,1.4,0.9,2.3c0,0.1,0,0.2,0,0.3c0,0.3-0.1,0.4-0.3,0.4c-0.2,0-0.3-0.1-0.3-0.4
		c0-0.4,0-0.8-0.2-1.2C24.1,17.2,23.3,16.5,22.1,16.3z M23.9,19c0,0.2-0.1,0.3-0.3,0.3c-0.2,0-0.3-0.1-0.3-0.4c0-0.2,0-0.4-0.1-0.6
		c-0.2-0.5-0.6-0.7-1.1-0.8c-0.2,0-0.4-0.1-0.4-0.3c0-0.2,0.1-0.4,0.3-0.3c0.6,0,1.2,0.2,1.5,0.7c0.2,0.3,0.4,0.7,0.4,1.1
		C23.9,18.9,23.9,19,23.9,19z M26.5,20.4c-0.2,0-0.3-0.2-0.3-0.4c0-1.1-0.2-2.1-0.8-3c-0.8-1.2-1.8-1.9-3.2-2.1
		c-0.3-0.1-0.6-0.1-0.9-0.1c-0.1,0-0.1,0-0.2,0c-0.2,0-0.3-0.2-0.3-0.3c0-0.2,0.1-0.3,0.3-0.3c0.1,0,0.1,0,0.2,0
		c2.7,0.1,4.9,1.8,5.4,4.5c0.1,0.4,0.1,0.9,0.2,1.3C26.8,20.3,26.7,20.4,26.5,20.4z"/>
	<path fill-rule="evenodd" clip-rule="evenodd"  d="M0,0v42.5h42.5V0H0z M32.3,20.7c0,1-0.1,2.1-0.3,3.1
		c-0.3,1.6-1,3.1-2.2,4.2c-0.8,0.7-1.7,1.1-2.6,1.4c-0.9,0.3-1.9,0.5-2.8,0.6c-0.7,0.1-1.5,0.1-2.2,0.2c-0.6,0-1.2,0-1.7,0
		c-0.2,0-0.5,0-0.7,0c-0.1,0-0.2,0-0.3,0.1c-0.6,0.7-1.2,1.4-1.8,2.1c-0.1,0.2-0.3,0.3-0.4,0.4c-0.6,0.5-1.3,0.2-1.5-0.6
		c0-0.1,0-0.3,0-0.4c0-0.3,0-0.7,0-1c0-0.4,0-0.8,0-1.1c0-0.1,0-0.2-0.2-0.2c-1.2-0.4-2.3-1-3.2-2c-0.7-0.9-1.2-1.9-1.5-3
		c-0.2-0.8-0.4-1.5-0.4-2.3c0-1-0.1-2.1-0.1-3.1c0-1.4,0.2-2.9,0.7-4.2c0.3-1,0.8-1.9,1.6-2.6c0.6-0.6,1.3-1,2.1-1.3
		c1.1-0.5,2.2-0.7,3.3-0.9c1.4-0.2,2.8-0.2,4.2-0.2c1.5,0,3.1,0.2,4.5,0.7c0.8,0.2,1.5,0.5,2.2,0.9c1.2,0.7,2,1.7,2.5,2.9
		c0.4,0.9,0.6,1.8,0.7,2.7C32.3,18.1,32.3,19.4,32.3,20.7z"/>
</g>
</svg>
