<?xml version="1.0" encoding="utf-8"?>
<!-- Generator: Adobe Illustrator 19.2.1, SVG Export Plug-In . SVG Version: 6.00 Build 0)  -->
<svg version="1.1" id="Layer_1" xmlns="http://www.w3.org/2000/svg" xmlns:xlink="http://www.w3.org/1999/xlink" x="0px" y="0px"
	 viewBox="0 0 42.5 42.5" style="enable-background:new 0 0 42.5 42.5;" xml:space="preserve">
<style type="text/css">
	.st0{fill-rule:evenodd;clip-rule:evenodd;fill:#47C8F5;}
</style>
<path class="st0" d="M0,0v42.5h42.5V0H0z M29.6,20.6c-1.8,7.3-13.9,10.4-19.4,2.8c2.1,2,5.8,2.2,8.2-0.2C17,23.4,16,22,17.7,21.3
	c-1.5,0.2-2.4-0.6-2.7-1.3c0.4-0.4,0.8-0.6,1.5-0.6c-1.7-0.4-2.3-1.2-2.5-2.2c0.5-0.1,1-0.2,1.4-0.2c-1.5-0.8-2-1.9-1.9-2.8
	c2.6,1,4.3,1.7,5.7,2.5c0.5,0.3,1.1,0.7,1.7,1.3c0.8-2.1,1.8-4.3,3.4-5.3c0,0.2-0.2,0.5-0.3,0.7c0.5-0.4,1.1-0.7,1.7-0.8
	c-0.1,0.5-0.8,0.7-1.2,0.9c0.3-0.1,2-0.8,2.1-0.4c0.2,0.5-1.1,0.7-1.4,0.8C25.1,13.9,25,14,24.8,14c2.1-0.2,4.1,1.5,4.7,3.7
	c0,0.2,0.1,0.3,0.1,0.5c0.8,0.3,2.2,0,2.6-0.3c-0.3,0.8-1.2,1.3-2.4,1.4c0.6,0.2,1.7,0.4,2.5,0.3C31.8,20.1,31,20.6,29.6,20.6z"/>
</svg>
