<svg id="Layer_1" data-name="Layer 1" xmlns="http://www.w3.org/2000/svg" viewBox="0 0 42.52 42.52"><defs><style>.cls-1{fill:#333132;fill-rule:evenodd;}</style></defs><title>soc-gplus</title><path class="cls-1" d="M18.27,23.92L18,23.7A3.21,3.21,0,0,0,17,23.56l0-.42h0v0.42c-1.49,0-2.8.94-2.8,2a2.33,2.33,0,0,0,2.55,2.09c1.89,0,2.84-.68,2.84-2a1.65,1.65,0,0,0,0-.39A2.66,2.66,0,0,0,18.27,23.92Z"/><path class="cls-1" d="M17.21,19.63a1.08,1.08,0,0,0,.86-0.39,2.53,2.53,0,0,0,.45-1.94c-0.17-1.36-1.09-2.5-2.05-2.53l0-.42v0.42a1.09,1.09,0,0,0-.83.39,2.48,2.48,0,0,0-.43,1.9c0.17,1.37,1.11,2.54,2.05,2.57h0Z"/><path class="cls-1" d="M0,0V42.52H42.52V0H0ZM16.75,29.26c-2.9,0-5-1.34-5-3.18,0-2.05,2.19-3.79,4.78-3.8a1.94,1.94,0,0,1-.21-0.88,2.14,2.14,0,0,1,0-.45,3.74,3.74,0,0,1-3.65-3.83A4.22,4.22,0,0,1,17,13.26h5.73l-2.12,1.6H20.27A3.85,3.85,0,0,1,21,17.15a3.6,3.6,0,0,1-1.42,2.78c-0.71.58-.71,0.71-0.71,1a3.16,3.16,0,0,0,1,1.12,3.72,3.72,0,0,1,1.74,3.39C21.57,27.3,19.88,29.26,16.75,29.26Zm14-10h-3v3h-2v-3h-3v-2h3v-3h2v3h3v2Z"/></svg>