<svg id="Layer_1" data-name="Layer 1" xmlns="http://www.w3.org/2000/svg" viewBox="0 0 42.52 42.52"><defs><style>.cls-1{fill:#3396d3;}</style></defs><title>soc-email</title><path class="cls-1" d="M0,0V42.52H42.52V0H0ZM31.07,20.65a7.37,7.37,0,0,1-1.48,3.91,4.92,4.92,0,0,1-3.28,1.89,3.68,3.68,0,0,1-1.64-.08,2.16,2.16,0,0,1-1.53-1.82l-0.06-.34-0.13.16a4.64,4.64,0,0,1-2.11,1.82,3.71,3.71,0,0,1-2.7.12,3.08,3.08,0,0,1-1.95-2.16,5.35,5.35,0,0,1-.19-2,6.84,6.84,0,0,1,.93-3,6.39,6.39,0,0,1,4-3,7.33,7.33,0,0,1,2.41-.21,9.2,9.2,0,0,1,2.6.53c0.33,0.13.33,0.13,0.27,0.48C26.06,18,25.89,19,25.72,20.08c-0.12.76-.26,1.52-0.37,2.28a4,4,0,0,0,0,1.46,0.84,0.84,0,0,0,1.09.7,2.28,2.28,0,0,0,1.46-1,5.23,5.23,0,0,0,.94-2.27,8.64,8.64,0,0,0,.11-2.5,6.29,6.29,0,0,0-2.22-4.41,6.43,6.43,0,0,0-2.87-1.32,8.29,8.29,0,0,0-2.67-.14,8,8,0,0,0-6.66,4.73,9.11,9.11,0,0,0-.82,2.91A9.79,9.79,0,0,0,14.1,25a6.48,6.48,0,0,0,4.62,4.32,8.9,8.9,0,0,0,3,.28,9.69,9.69,0,0,0,3.49-.85l0.07,0,0.52,1.64L25,30.7a10.74,10.74,0,0,1-2.78.62,14.29,14.29,0,0,1-2.52,0,9,9,0,0,1-5.12-2,8.54,8.54,0,0,1-3-4.94,10.59,10.59,0,0,1-.2-3.09,11.27,11.27,0,0,1,2.2-6,10.27,10.27,0,0,1,4.85-3.58,11,11,0,0,1,2.77-.59,10.33,10.33,0,0,1,4.34.48,8,8,0,0,1,4.57,3.83,8.13,8.13,0,0,1,.89,2.8A9.83,9.83,0,0,1,31.07,20.65Z"/><path class="cls-1" d="M20.88,18.57A4.35,4.35,0,0,0,19,23a1.31,1.31,0,0,0,.9,1.08,1.55,1.55,0,0,0,1.45-.26,3.77,3.77,0,0,0,1.39-2.13A12.92,12.92,0,0,0,23,20.3c0.11-.66.2-1.32,0.29-2l-0.06,0A3,3,0,0,0,20.88,18.57Z"/></svg>