<?xml version="1.0" encoding="utf-8"?>
<!-- Generator: Adobe Illustrator 19.0.1, SVG Export Plug-In . SVG Version: 6.00 Build 0)  -->
<svg version="1.1" id="Layer_1" xmlns="http://www.w3.org/2000/svg" xmlns:xlink="http://www.w3.org/1999/xlink" x="0px" y="0px"
	 viewBox="0 0 42.5 42.5" enable-background="new 0 0 42.5 42.5" xml:space="preserve">
<g>
	<path fill-rule="evenodd" clip-rule="evenodd" d="M15.8,13.6c-1.9,1.4-3,3.3-3.5,5.6c-0.5,2.6,0.1,5,1.6,7.2
		c0,0,0,0.1,0,0.1c-0.1,0.3-0.2,0.6-0.3,0.8c-0.3,0.8-0.5,1.6-0.8,2.4c0,0,0,0.1,0,0.2c1.2-0.4,2.4-0.8,3.5-1.1
		c2.1,1.3,4.3,1.8,6.7,1.4c2.4-0.4,4.4-1.6,5.9-3.6c2.8-3.7,2.5-8.9-0.9-12.2C24.7,11,19.4,10.8,15.8,13.6z M27.2,24.8
		c0,0.1-0.1,0.2-0.1,0.4c-0.1,0.2-0.2,0.4-0.4,0.6c-0.4,0.4-0.9,0.7-1.5,0.8c-0.1,0-0.2,0-0.4,0.1c-0.4,0.1-0.8,0-1.1-0.1
		c-0.5-0.1-1-0.3-1.5-0.5c-0.4-0.2-0.8-0.3-1.2-0.5c-0.7-0.4-1.4-0.9-2-1.5c-0.8-0.7-1.4-1.6-2-2.5c-0.1-0.1-0.2-0.3-0.3-0.4
		c-0.4-0.6-0.7-1.2-0.8-1.9c-0.1-0.3-0.1-0.6-0.1-0.9c0-0.9,0.3-1.7,0.9-2.3c0.1-0.1,0.1-0.1,0.2-0.2c0.2-0.2,0.5-0.3,0.9-0.3
		c0.2,0,0.3,0,0.5,0c0.2,0,0.3,0.1,0.4,0.2c0.1,0.1,0.1,0.2,0.1,0.3c0.2,0.6,0.5,1.2,0.7,1.8c0,0.1,0.1,0.2,0.1,0.4
		c0.1,0.2,0.1,0.3,0,0.5c-0.1,0.2-0.2,0.4-0.3,0.5c-0.1,0.2-0.3,0.3-0.4,0.5c-0.2,0.2-0.2,0.3-0.1,0.6c0.2,0.4,0.4,0.7,0.7,1.1
		c0.7,1,1.7,1.8,2.8,2.3c0.1,0,0.2,0.1,0.3,0.2c0,0,0.1,0,0.1,0c0.2,0.1,0.4,0.1,0.5-0.1c0.2-0.2,0.3-0.4,0.5-0.5
		c0.2-0.2,0.3-0.4,0.5-0.6c0,0,0.1-0.1,0.1-0.1c0.1-0.1,0.2-0.1,0.3-0.1c0.1,0,0.2,0.1,0.4,0.1c0.3,0.1,0.6,0.3,0.8,0.4
		c0.4,0.2,0.8,0.4,1.2,0.6c0.1,0,0.1,0.1,0.2,0.1c0.1,0.1,0.2,0.2,0.2,0.3C27.3,24.3,27.2,24.5,27.2,24.8z"/>
	<path fill-rule="evenodd" clip-rule="evenodd" d="M0,0v42.5h42.5V0H0z M30.6,27.4c-3.2,4.5-9.3,6.2-14.6,3.3
		c-2.1,0.7-4.1,1.3-6.2,2c0,0,0,0,0,0c0,0,0,0,0,0c0,0,0,0,0,0c0.7-2,1.3-4,2-5.9c-1.5-2.7-2-5.5-1.3-8.5c0.7-2.7,2.1-4.8,4.3-6.4
		c4.4-3.2,10.5-2.7,14.4,1.1C33.3,16.9,33.7,23,30.6,27.4z"/>
</g>
</svg>
