<?xml version="1.0" encoding="utf-8"?>
<!-- Generator: Adobe Illustrator 19.2.1, SVG Export Plug-In . SVG Version: 6.00 Build 0)  -->
<svg version="1.1" id="Layer_1" xmlns="http://www.w3.org/2000/svg" xmlns:xlink="http://www.w3.org/1999/xlink" x="0px" y="0px"
	 viewBox="0 0 42.5 42.5" style="enable-background:new 0 0 42.5 42.5;" xml:space="preserve">
<style type="text/css">
	.st0{fill-rule:evenodd;clip-rule:evenodd;fill:#C8302B;}
	.st1{fill:#D12029;}
</style>
<g>
	<g>
		<path class="st0" d="M0,0v42.5h42.5V0H0z M25.1,10.6h1.5v6c0,0.1,0,0.2,0,0.3c0,0.1,0.1,0.1,0.3,0.1c0.2,0,0.3,0,0.3-0.1
			c0-0.1,0.1-0.2,0.1-0.3v-6h1.5V18h-1.5v-0.4h0c-0.1,0.2-0.3,0.3-0.4,0.4c-0.2,0.1-0.4,0.1-0.6,0.1c-0.3,0-0.5,0-0.7-0.1
			c-0.2-0.1-0.3-0.2-0.3-0.3c-0.1-0.1-0.1-0.3-0.1-0.5c0-0.2,0-0.4,0-0.6V10.6z M19.4,11.7c0-0.4,0.2-0.7,0.5-0.9
			c0.3-0.2,0.8-0.3,1.3-0.3c0.6,0,1,0.1,1.3,0.3c0.3,0.2,0.5,0.5,0.5,0.9v5.1c0,0.4-0.2,0.7-0.5,0.9c-0.3,0.2-0.8,0.3-1.3,0.3
			c-0.6,0-1-0.1-1.3-0.3c-0.3-0.2-0.5-0.5-0.5-0.9V11.7z M14.8,8.7l0.5,2c0.1,0.2,0.1,0.4,0.1,0.6c0,0.1,0.1,0.3,0.1,0.4
			c0,0.1,0,0.3,0.1,0.4c0,0.2,0,0.4,0.1,0.6h0c0-0.4,0.1-0.7,0.1-1c0-0.3,0.1-0.6,0.2-0.9l0.6-2.1h1.5l-1.7,5.7V18h-1.6v-3.5
			l-1.7-5.8H14.8z M34.8,29.8c0,2.2-1.8,3.9-3.9,3.9H11.6c-2.2,0-3.9-1.8-3.9-3.9v-5.6c0-2.2,1.8-3.9,3.9-3.9h19.2
			c2.2,0,3.9,1.8,3.9,3.9V29.8z"/>
		<path class="st0" d="M21.2,17.2c0.1,0,0.2,0,0.3-0.1c0.1,0,0.1-0.1,0.1-0.3v-5.1c0-0.2,0-0.3-0.1-0.3c-0.1,0-0.1-0.1-0.3-0.1
			c-0.1,0-0.2,0-0.3,0.1c-0.1,0-0.1,0.1-0.1,0.3v5.1c0,0.2,0,0.3,0.1,0.3C21,17.2,21.1,17.2,21.2,17.2z"/>
	</g>
	<path class="st1" d="M16.4,22.2v1.2h-1.4v8h-1.6v-8h-1.4v-1.2H16.4z"/>
	<path class="st1" d="M20.5,31.4h-1.5v-0.4h0c-0.1,0.2-0.3,0.3-0.4,0.4c-0.2,0.1-0.4,0.1-0.6,0.1c-0.3,0-0.5,0-0.7-0.1
		c-0.2-0.1-0.3-0.2-0.3-0.3c-0.1-0.1-0.1-0.3-0.1-0.4c0-0.2,0-0.4,0-0.5V24h1.5v6c0,0.1,0,0.2,0,0.3c0,0.1,0.1,0.1,0.3,0.1
		c0.2,0,0.3,0,0.3-0.1c0-0.1,0.1-0.2,0.1-0.3v-6h1.5V31.4z"/>
	<path class="st1" d="M22.1,22.2h1.5v2.3h0c0.1-0.1,0.3-0.3,0.4-0.4c0.2-0.1,0.4-0.2,0.6-0.2c0.3,0,0.5,0.1,0.8,0.2
		c0.2,0.1,0.3,0.4,0.3,0.7v5.8c0,0.3-0.1,0.5-0.3,0.7c-0.2,0.1-0.5,0.2-0.8,0.2c-0.2,0-0.4-0.1-0.6-0.2c-0.2-0.1-0.3-0.2-0.4-0.4h0
		v0.4h-1.5V22.2z M24.3,25.4c0-0.2,0-0.3-0.1-0.4C24.1,25,24,25,24,25c-0.1,0-0.2,0-0.2,0.1c-0.1,0.1-0.1,0.2-0.1,0.4V30
		c0,0.2,0,0.3,0.1,0.4c0.1,0.1,0.2,0.1,0.2,0.1c0.1,0,0.2,0,0.2-0.1c0.1-0.1,0.1-0.2,0.1-0.4V25.4z"/>
	<path class="st1" d="M30.4,28.5v1.8c0,0.4-0.2,0.7-0.5,0.9c-0.3,0.2-0.8,0.3-1.3,0.3c-0.6,0-1-0.1-1.3-0.3
		c-0.3-0.2-0.5-0.5-0.5-0.9v-5.1c0-0.4,0.2-0.7,0.5-0.9c0.3-0.2,0.8-0.3,1.3-0.3c0.6,0,1,0.1,1.3,0.3c0.3,0.2,0.5,0.5,0.5,0.9v2.7
		h-2.2v2.3c0,0.2,0,0.3,0.1,0.3c0.1,0,0.1,0.1,0.3,0.1c0.1,0,0.2,0,0.3-0.1c0.1,0,0.1-0.1,0.1-0.3v-1.7H30.4z M29,25.2
		c0-0.2,0-0.3-0.1-0.3c-0.1,0-0.1-0.1-0.3-0.1c-0.1,0-0.2,0-0.3,0.1c-0.1,0-0.1,0.1-0.1,0.3V27H29V25.2z"/>
</g>
</svg>
