<?xml version="1.0" encoding="utf-8"?>
<!-- Generator: Adobe Illustrator 19.2.1, SVG Export Plug-In . SVG Version: 6.00 Build 0)  -->
<svg version="1.1" id="Layer_1" xmlns="http://www.w3.org/2000/svg" xmlns:xlink="http://www.w3.org/1999/xlink" x="0px" y="0px"
	 viewBox="0 0 42.5 42.5" style="enable-background:new 0 0 42.5 42.5;" xml:space="preserve">
<style type="text/css">
	.st0{fill-rule:evenodd;clip-rule:evenodd;fill:#3D5B99;}
</style>
<path class="st0" d="M0,0v42.5h42.5V0H0z M26.6,22.3h-3.3v8.8H20v-8.8h-2.3v-3.2H20c0,0,0-1.3,0-2.7c0-2.1,1.4-4.1,4.5-4.1
	c1.3,0,2.2,0.1,2.2,0.1l-0.1,2.9c0,0-1,0-2,0c-1.1,0-1.3,0.5-1.3,1.4c0,0.1,0,0.1,0,0.2c0,0.2,0,0.8,0,2.2h3.4L26.6,22.3z"/>
</svg>
