<?xml version="1.0" encoding="utf-8"?>
<!-- Generator: Adobe Illustrator 19.2.1, SVG Export Plug-In . SVG Version: 6.00 Build 0)  -->
<svg version="1.1" id="Layer_1" xmlns="http://www.w3.org/2000/svg" xmlns:xlink="http://www.w3.org/1999/xlink" x="0px" y="0px"
	 viewBox="0 0 42.5 42.5" style="enable-background:new 0 0 42.5 42.5;" xml:space="preserve">
<style type="text/css">
	.st0{fill:#5D82AB;}
</style>
<path class="st0" d="M0,0v42.5h42.5V0H0z M29.7,26.6c-0.5,0-1.9,0-2.5,0c-0.6,0-1.1-0.3-1.7-0.9c-0.6-0.6-0.8-0.9-1.3-1.4
	c-0.5-0.5-0.9-0.2-1.1,0.2c-0.2,0.3-0.3,0.9-0.3,1.2c0,0.3,0,0.5-0.2,0.6c-0.1,0.1-0.7,0.2-1.1,0.2c-0.4,0-2.4,0.3-4.8-1.8
	c-2.3-2.1-4.4-6.7-4.8-7.4c-0.4-0.7-0.1-1,0.5-1c0.6,0,1.8,0,2.4,0c0.6,0,0.7,0.1,0.9,0.5c0.2,0.4,0.5,1.3,1.2,2.3
	c0.6,1,1.2,1.9,1.7,1.9c0.5,0,0.6-0.9,0.6-2.1c0-1.2,0-1.5-0.3-1.9c-0.3-0.4-0.8-0.3-0.8-0.4c0-0.2,0.3-0.5,0.9-0.6
	c0.6-0.1,1.5-0.2,2.6-0.1c1.1,0.1,1.2,0.5,1.2,1.4c0,0.9,0,2,0,2.8c0,0.8,0.2,1,0.5,1c0.3,0,0.8-0.5,1.2-1.3
	c0.5-0.8,0.9-1.6,1.3-2.4c0.4-0.8,0.4-1.1,1.1-1.1c0.7,0,1.7,0,2.9,0s0.8,1-0.1,2.3c-0.9,1.3-1.4,1.9-1.9,2.6
	c-0.5,0.7-0.3,1,0.4,1.7c0.7,0.7,1.3,1.3,2.1,2.3C31.1,26.2,30.3,26.6,29.7,26.6z"/>
</svg>
